<?xml version="1.0" encoding="UTF-8"?>
<!DOCTYPE svg PUBLIC "-//W3C//DTD SVG 1.1//EN" "http://www.w3.org/Graphics/SVG/1.1/DTD/svg11.dtd">
<!-- Creator: CorelDRAW 2018 (64 Bit Versão de avaliação) -->
<svg xmlns="http://www.w3.org/2000/svg" xml:space="preserve" width="76.2mm" height="76.2mm" version="1.1" style="shape-rendering:geometricPrecision; text-rendering:geometricPrecision; image-rendering:optimizeQuality; fill-rule:evenodd; clip-rule:evenodd"
viewBox="0 0 1063.48 1063.48"
 xmlns:xlink="http://www.w3.org/1999/xlink">
 <defs>
  <style type="text/css">
   <![CDATA[
    .fil0 {fill:none}
    .fil13 {fill:#222124}
    .fil24 {fill:#026A96}
    .fil22 {fill:#9E0524}
    .fil4 {fill:#919496;fill-rule:nonzero}
    .fil6 {fill:#7B7F81;fill-rule:nonzero}
    .fil5 {fill:#646869;fill-rule:nonzero}
    .fil3 {fill:#3A3C3E;fill-rule:nonzero}
    .fil1 {fill:#222124;fill-rule:nonzero}
    .fil25 {fill:#009EE0;fill-rule:nonzero}
    .fil23 {fill:#E3002F;fill-rule:nonzero}
    .fil14 {fill:url(#id2)}
    .fil9 {fill:url(#id3)}
    .fil17 {fill:url(#id4)}
    .fil11 {fill:url(#id5)}
    .fil21 {fill:url(#id6)}
    .fil15 {fill:url(#id7)}
    .fil20 {fill:url(#id8)}
    .fil16 {fill:url(#id9)}
    .fil19 {fill:url(#id10)}
    .fil12 {fill:url(#id11)}
    .fil7 {fill:url(#id12)}
    .fil2 {fill:url(#id13)}
    .fil10 {fill:url(#id14)}
    .fil18 {fill:url(#id15)}
    .fil8 {fill:url(#id16)}
   ]]>
  </style>
      <clipPath id="id0">
       <path d="M341.02 460.62l201.78 0 0 253.52 -201.78 0 0 -253.52z"/>
      </clipPath>
      <clipPath id="id1">
       <path d="M517.94 463.06l205.52 0 0 248.63 -205.52 0 0 -248.63z"/>
      </clipPath>
  <linearGradient id="id2" gradientUnits="userSpaceOnUse" x1="989.38" y1="520.93" x2="904.15" y2="462.47">
   <stop offset="0" style="stop-opacity:1; stop-color:#3A3C3E"/>
   <stop offset="0.988235" style="stop-opacity:1; stop-color:#949797"/>
   <stop offset="1" style="stop-opacity:1; stop-color:#949797"/>
  </linearGradient>
  <linearGradient id="id3" gradientUnits="userSpaceOnUse" x1="484.73" y1="587.51" x2="321.69" y2="587.51">
   <stop offset="0" style="stop-opacity:1; stop-color:#212123"/>
   <stop offset="0.0117647" style="stop-opacity:1; stop-color:#212123"/>
   <stop offset="1" style="stop-opacity:1; stop-color:#ABAEAF"/>
  </linearGradient>
  <linearGradient id="id4" gradientUnits="userSpaceOnUse" xlink:href="#id2" x1="862.6" y1="563.69" x2="876.5" y2="491.71">
  </linearGradient>
  <linearGradient id="id5" gradientUnits="userSpaceOnUse" xlink:href="#id2" x1="685.08" y1="586.37" x2="807.36" y2="586.37">
  </linearGradient>
  <linearGradient id="id6" gradientUnits="userSpaceOnUse" xlink:href="#id2" x1="201.24" y1="565.54" x2="187.34" y2="493.57">
  </linearGradient>
  <linearGradient id="id7" gradientUnits="userSpaceOnUse" xlink:href="#id2" x1="869.14" y1="520.22" x2="920.2" y2="375.52">
  </linearGradient>
  <linearGradient id="id8" gradientUnits="userSpaceOnUse" xlink:href="#id2" x1="291.6" y1="514.17" x2="264.7" y2="465.99">
  </linearGradient>
  <linearGradient id="id9" gradientUnits="userSpaceOnUse" xlink:href="#id2" x1="786.65" y1="522.7" x2="778.95" y2="473.17">
  </linearGradient>
  <linearGradient id="id10" gradientUnits="userSpaceOnUse" xlink:href="#id2" x1="185.62" y1="493.35" x2="145.36" y2="382.74">
  </linearGradient>
  <linearGradient id="id11" gradientUnits="userSpaceOnUse" xlink:href="#id2" x1="685.08" y1="586.37" x2="807.36" y2="586.37">
  </linearGradient>
  <linearGradient id="id12" gradientUnits="userSpaceOnUse" x1="390.91" y1="198.75" x2="656.86" y2="198.75">
   <stop offset="0" style="stop-opacity:1; stop-color:#212123"/>
   <stop offset="0" style="stop-opacity:1; stop-color:#212123"/>
   <stop offset="0.988235" style="stop-opacity:1; stop-color:#949797"/>
   <stop offset="1" style="stop-opacity:1; stop-color:#949797"/>
  </linearGradient>
  <linearGradient id="id13" gradientUnits="userSpaceOnUse" xlink:href="#id12" x1="402.67" y1="227" x2="690.26" y2="227">
  </linearGradient>
  <linearGradient id="id14" gradientUnits="userSpaceOnUse" xlink:href="#id2" x1="372.02" y1="586.37" x2="217.03" y2="586.37">
  </linearGradient>
  <linearGradient id="id15" gradientUnits="userSpaceOnUse" xlink:href="#id2" x1="72.44" y1="522.07" x2="157.66" y2="463.62">
  </linearGradient>
  <linearGradient id="id16" gradientUnits="userSpaceOnUse" x1="393.22" y1="587.51" x2="703.07" y2="587.51">
   <stop offset="0" style="stop-opacity:1; stop-color:#212123"/>
   <stop offset="0.278431" style="stop-opacity:1; stop-color:#212123"/>
   <stop offset="0.968627" style="stop-opacity:1; stop-color:#3A3C3E"/>
   <stop offset="1" style="stop-opacity:1; stop-color:#3A3C3E"/>
  </linearGradient>
 </defs>
 <g id="Camada_x0020_1">
  <metadata id="CorelCorpID_0Corel-Layer"/>
  <g id="_1885805154672">
   <rect class="fil0" x="-0" y="-0" width="1063.48" height="1063.48"/>
   <g>
    <polygon class="fil1" points="397.1,296.89 667.15,296.89 667.15,243.81 397.1,243.81 "/>
    <polygon class="fil1" points="406.76,287.23 657.49,287.23 657.49,253.47 406.76,253.47 "/>
    <path class="fil1" d="M671.25 282.74c-56.99,-13.76 -213.06,-12.81 -278.24,0 0,-29.12 0,-40.78 0,-69.9 16.39,-28.32 83.66,-39.64 139.12,-39.77 58.34,-0.14 120.12,11.46 139.12,39.77 0,29.12 0,40.78 0,69.9z"/>
    <path class="fil2" d="M411.34 207.52c-3.66,2.58 -6.6,5.31 -8.68,8.17l0 55.55c2.77,-0.43 5.68,-0.84 8.68,-1.25l0 -62.48zm164.47 -22.6c-12.08,-1.31 -25,-2.05 -38.55,-2.18l0 80.37 0.84 -0c13.1,0 25.71,0.19 37.71,0.54l0 -78.73zm-48.82 -2.15c-13.48,0.19 -26.42,0.99 -38.55,2.32l0 78.92c12.42,-0.46 25.34,-0.75 38.55,-0.86l0 -80.38zm58 81.19c11.36,0.44 22.11,1.03 32.12,1.77l0 -73.3c-9.65,-2.64 -20.42,-4.79 -32.12,-6.39l0 77.92zm60.88 -60.38c-5.85,-3.24 -12.79,-6.17 -20.65,-8.73l0 71.52c7.36,0.64 14.27,1.36 20.65,2.17l0 -64.97zm-166.62 -17.36c-11.68,1.6 -22.47,3.72 -32.12,6.28l0 73.82c10.14,-0.78 20.9,-1.43 32.12,-1.93l0 -78.17zm-60.88 82.88c6.48,-0.78 13.38,-1.48 20.65,-2.11l0 -72.15c-7.92,2.49 -14.86,5.29 -20.65,8.38l0 65.88zm243.21 -53.11l0 54.89c-2.75,-0.49 -5.65,-0.94 -8.67,-1.39l0 -61.48c3.48,2.51 6.41,5.17 8.67,7.98z"/>
    <path class="fil3" d="M479.26 264.51c0.81,-0.04 1.6,-0.08 2.41,-0.12l0 -78.6c-0.82,0.11 -1.61,0.32 -2.41,0.44l0 78.28z"/>
    <path class="fil3" d="M527 263.18c0.81,-0 1.61,-0.02 2.41,-0.03l0 -80.38c-0.81,0.01 -1.61,0.03 -2.41,0.05l0 80.36z"/>
    <path class="fil3" d="M411.34 270.33c0.8,-0.11 1.59,-0.22 2.41,-0.33l0 -64.28c-0.85,0.6 -1.65,1.19 -2.41,1.8l0 62.82z"/>
    <path class="fil3" d="M439.03 267.22c0.8,-0.08 1.6,-0.15 2.41,-0.22l0 -73.01c-0.82,0.26 -1.62,0.6 -2.41,0.86l0 72.37z"/>
    <path class="fil4" d="M645.88 268.56c0.81,0.09 1.63,0.24 2.41,0.35l0 -63.92c-0.78,-0.43 -1.59,-0.97 -2.41,-1.4l0 64.97z"/>
    <path class="fil5" d="M575.81 263.59c0.8,0.02 1.62,0.04 2.41,0.06l0 -78.73c-0.8,-0.09 -1.61,-0.16 -2.41,-0.24l0 78.91z"/>
    <path class="fil6" d="M617.12 265.74c0.81,0.06 1.62,0.13 2.41,0.19l0 -72.86c-0.79,-0.21 -1.6,-0.41 -2.41,-0.62l0 73.3z"/>
    <path class="fil7" d="M533.15 182.41l-1 0c-62.68,0.15 -114.83,13.46 -129.41,32.68 0,0 36.29,-16.34 129.24,-16.34 93.25,0 129.24,16.34 129.24,16.34 -17.04,-19.96 -66.41,-32.68 -128.06,-32.68z"/>
    <path class="fil1" d="M746.11 774.8c0,63.59 -50.28,115.62 -111.74,115.62l-204.49 0c-61.46,0 -111.74,-52.03 -111.74,-115.62l0 -374.59c0,-63.58 50.28,-115.61 111.74,-115.61l204.49 0c61.46,0 111.74,52.03 111.74,115.61l0 374.59z"/>
    <path class="fil8" d="M429.88 880.75c-56.29,0 -102.08,-47.53 -102.08,-105.95l0 -374.59c0,-58.42 45.8,-105.95 102.08,-105.95l204.49 0c56.29,0 102.08,47.53 102.08,105.95l0 374.59c0,58.43 -45.79,105.95 -102.08,105.95l-204.49 0z"/>
    <path class="fil9" d="M469.47 294.26l-39.42 0c-30.12,0 -57.21,17.45 -75.84,39.21l0 510.09c18.63,21.76 45.73,37.19 75.84,37.19l31.94 0c-19.06,-21.18 -30.93,-50.82 -30.93,-83.58l0 -411.79c0,-36.85 15.02,-69.76 38.41,-91.12z"/>
    <path class="fil10" d="M357.99 798.23l0 -419.93c0,-40.08 23.62,-73.73 55.27,-82.63 -48.41,8.27 -85.45,51.99 -85.45,104.54l0 374.59c0,48.84 32,90.05 75.38,102.27 -26.45,-12.55 -45.19,-43.15 -45.19,-78.84z"/>
    <path class="fil11" d="M651 295.67c31.65,8.9 55.27,42.55 55.27,82.63l0 419.93c0,35.69 -18.74,66.29 -45.19,78.84 43.37,-12.22 75.38,-53.43 75.38,-102.27l0 -374.59c0,-52.55 -37.05,-96.27 -85.45,-104.54z"/>
    <path class="fil12" d="M530.47 849.4c-156.78,0 -190.54,-12.85 -190.54,-12.85 15.71,16.83 40.08,44.2 94.98,47.89l192.16 0c36.64,0 75.35,-23.95 95.82,-47.89 0,0 -42.63,12.85 -192.42,12.85z"/>
    <path class="fil13" d="M893.87 435.86c2.12,17.1 0.9,27.15 -4.74,34.14 -4.92,4.07 -11.15,7.95 -21.93,4.73 -8.09,-15.2 -24.12,-37.4 -28.6,-41.69 6.78,-19.46 21.45,-40.86 30.65,-49.4 3.47,9.38 22.92,47.28 24.62,52.22z"/>
    <path class="fil3" d="M872.73 466.68c4.01,0.53 7.08,-0.34 10.49,-2.99 3.23,-4.32 4.48,-9.9 2.54,-26.11 -1.14,-2.89 -5.29,-12.05 -8.98,-20.2 -3.39,-7.5 -6.86,-15.14 -9.54,-21.28 -6.89,9.19 -15.01,23.26 -20.21,36.66 6.39,6.94 17.95,21.04 25.29,33.86l0.41 0.06z"/>
    <path class="fil1" d="M720.63 557.26c88.79,86.5 236.06,63.35 288.12,21 27.96,-75.72 -9.87,-148.77 -29.66,-168.19 -32.17,-7.83 -52.86,-20.4 -57.27,-20.99 -6.91,48.89 -30.6,99.16 -36.42,109.16 -20.05,-4.45 -119.7,-34.68 -122.35,-35.03 -8.42,19.66 -36.01,75.74 -42.41,94.05z"/>
    <path class="fil3" d="M845.15 603.76c62.25,8.23 123.94,-9.91 154.59,-32.62 19.18,-72.84 -6.63,-126.35 -30.71,-155.63 -0.64,-0.78 -1.51,-5.69 -2,-6.52 -13.9,-3.33 -26.38,-5.97 -36.39,-7.73 -8.41,45.08 -28.88,90.08 -36,102.34l-3.93 6.75 -7.62 -1.69c-13.37,-2.96 -58.85,-16.39 -92.06,-26.19 -8.14,-2.42 -26.28,-5.95 -31.97,-7.61 -10.7,24.07 -29.06,66.51 -32.97,76.13 35.72,28.26 79.22,47.51 119.06,52.77z"/>
    <path class="fil14" d="M936.83 567.4c-6.47,-26.11 -22.79,-46.26 -42.51,-63.26l0.32 -0.55c7.12,-12.26 27.58,-57.26 36,-102.34 5.76,1.01 12.37,2.33 19.56,3.89 16.23,52.36 11.24,113.61 -13.36,162.26z"/>
    <path class="fil1" d="M980.68 411.33c-27.98,-22.54 -91,-50.73 -104.13,-49.78 -14.1,18.34 -27.94,48.37 -33.27,68.3 10.95,12.22 21.1,20.29 23.25,21.02 7.44,1.43 8.76,1.61 14.93,2.42 5.82,3.46 40.89,30.09 46.83,32.66 7.83,-1.91 25.86,-11.5 32.36,-17.37 2.53,-6.4 4.57,-18.09 0.87,-29.5 9.07,-10.85 9.02,-17.31 19.15,-27.76z"/>
    <path class="fil3" d="M929.75 474.45c6.27,-2.05 17.94,-6.79 23.37,-9.89 1.57,-2.51 4.76,-8.01 4.8,-11.7 -2.82,0.07 -10.08,1.57 -10.08,1.57l15.38 -10.25c0,0 -0.11,14.4 -2.41,24.19 5.93,-17.67 14.03,-29.23 13.39,-46.13 -18.83,-17.98 -77.56,-45.72 -92.92,-49.03 -10.87,15.86 -20.92,37.8 -26.04,53.85 7.11,7.57 12.5,12.32 14.73,14.04 1.24,0.22 2.34,0.39 3.41,0.53 1.37,0.18 2.53,0.3 3.77,0.41 1.57,0.15 3.36,0.33 5.73,0.64l2.17 0.29 1.88 1.13c2.62,1.55 8.28,5.65 18.07,12.76 7.46,5.41 19,13.8 24.75,17.57z"/>
    <path class="fil15" d="M880.68 374.12c24.79,9.65 63.18,41.65 67.84,53.94 -5.51,14.52 -12.99,33.73 -17.26,45.89 -0.53,0.17 -1.04,0.35 -1.51,0.5 -5.76,-3.77 -17.3,-12.16 -24.75,-17.57 -9.79,-7.11 -15.46,-11.21 -18.07,-12.76l-1.88 -1.13 -2.17 -0.29c-2.37,-0.31 -4.16,-0.49 -5.73,-0.64 -1.24,-0.12 -2.4,-0.23 -3.77,-0.41 -1.07,-0.14 -2.18,-0.32 -3.41,-0.53 -2.23,-1.73 -7.61,-6.47 -14.73,-14.04 5.02,-15.76 14.8,-37.18 25.45,-52.95z"/>
    <path class="fil1" d="M921.72 539.16c-3.75,-42.9 -81.06,-99.57 -142.09,-24.85 20.35,59.91 115.75,50.98 142.09,24.85z"/>
    <path class="fil3" d="M851.44 557.71c25.7,3.4 60.19,3.02 70.9,-13.09 -3.88,-20.16 -39.24,-51.71 -67.95,-55.51 -22.25,-2.94 -43.74,6.47 -62.48,27.26 11.73,26.11 37.93,38.48 59.53,41.34z"/>
    <path class="fil1" d="M720.29 493.75c-1.72,-31.24 14.08,-42.57 28.26,-50 53.55,-16.93 91.83,33.5 82.88,70.68 -28.18,7.13 -75.56,17.2 -94.78,21.32 -5.26,8.01 -15.56,23.34 -25.86,35.7 7.55,-16.94 16.7,-45.08 16.7,-45.08 0,0 -5.84,-18.88 -7.21,-32.61z"/>
    <path class="fil3" d="M727.5 526.37c44.96,-4.2 78.05,-4.58 106.98,-9.52 -16.19,-71.02 -76.31,-78.14 -104.17,-52.13 -11.74,11.53 -16.09,44.94 -2.81,61.65z"/>
    <path class="fil16" d="M834.48 516.85l-0.11 0.03c-19.87,-35.5 -68.81,-65.55 -104.06,-52.15 29.99,-29.92 87.98,-18.89 104.17,52.13z"/>
    <path class="fil1" d="M912.65 468.63c-0,-11 2.09,-26.87 6.51,-42.45 -9.71,14.87 -11,28.06 -12.16,37.66 0.58,0.75 3.2,2.89 5.65,4.79z"/>
    <path class="fil1" d="M889.88 451.6c-2.44,-12.1 3.01,-28.77 7.62,-42.41 -10.26,10.53 -14.5,25.68 -16.21,38.58 1.04,0.58 6.9,2.93 8.58,3.82z"/>
    <path class="fil17" d="M911.46 542.05c-4.91,-30.7 -53.18,-63.56 -80.23,-51.54 0.57,5 2.48,21.97 -2.74,35.98 23.01,21.1 64.86,25.29 82.97,15.56z"/>
    <path class="fil13" d="M169.61 435.86c-2.11,17.1 -0.9,27.15 4.74,34.14 4.92,4.07 11.15,7.95 21.94,4.73 8.09,-15.2 24.11,-37.4 28.59,-41.69 -6.78,-19.46 -21.44,-40.86 -30.65,-49.4 -3.47,9.38 -22.91,47.28 -24.61,52.22z"/>
    <path class="fil3" d="M190.75 466.68c-4,0.53 -7.08,-0.34 -10.48,-2.99 -3.24,-4.32 -4.49,-9.9 -2.54,-26.11 1.14,-2.89 5.29,-12.05 8.98,-20.2 3.39,-7.5 6.86,-15.14 9.54,-21.28 6.89,9.19 15.01,23.26 20.21,36.66 -6.39,6.94 -17.95,21.04 -25.29,33.86l-0.41 0.06z"/>
    <path class="fil1" d="M342.85 557.26c-88.79,86.5 -236.06,63.35 -288.12,21 -27.97,-75.72 9.86,-148.77 29.66,-168.19 32.16,-7.83 52.86,-20.4 57.27,-20.99 6.91,48.89 30.6,99.16 36.41,109.16 20.05,-4.45 119.7,-34.68 122.35,-35.03 8.42,19.66 36,75.74 42.41,94.05z"/>
    <path class="fil3" d="M218.33 603.76c-62.24,8.23 -123.93,-9.91 -154.59,-32.62 -19.18,-72.84 6.63,-126.35 30.71,-155.63 0.64,-0.78 1.51,-5.69 2,-6.52 13.9,-3.33 26.38,-5.97 36.39,-7.73 8.41,45.08 28.88,90.08 36,102.34l3.93 6.75 7.62 -1.69c13.37,-2.96 58.85,-16.39 92.06,-26.19 8.14,-2.42 26.27,-5.95 31.97,-7.61 10.71,24.07 29.06,66.51 32.97,76.13 -35.72,28.26 -79.22,47.51 -119.06,52.77z"/>
    <path class="fil18" d="M126.65 567.4c6.47,-26.11 22.79,-46.26 42.52,-63.26l-0.32 -0.55c-7.12,-12.26 -27.59,-57.26 -36,-102.34 -5.76,1.01 -12.36,2.33 -19.55,3.89 -16.23,52.36 -11.24,113.61 13.36,162.26z"/>
    <path class="fil1" d="M82.8 411.33c27.98,-22.54 91,-50.73 104.14,-49.78 14.09,18.34 27.93,48.37 33.26,68.3 -10.95,12.22 -21.1,20.29 -23.25,21.02 -7.44,1.43 -8.76,1.61 -14.93,2.42 -5.82,3.46 -40.89,30.09 -46.83,32.66 -7.83,-1.91 -25.86,-11.5 -32.36,-17.37 -2.53,-6.4 -4.58,-18.09 -0.88,-29.5 -9.07,-10.85 -9.02,-17.31 -19.15,-27.76z"/>
    <path class="fil3" d="M133.73 474.45c-6.27,-2.05 -17.93,-6.79 -23.36,-9.89 -1.57,-2.51 -4.76,-8.01 -4.8,-11.7 2.82,0.07 10.08,1.57 10.08,1.57l-15.38 -10.25c0,0 0.1,14.4 2.41,24.19 -5.93,-17.67 -14.03,-29.23 -13.39,-46.13 18.83,-17.98 77.56,-45.72 92.92,-49.03 10.87,15.86 20.93,37.8 26.04,53.85 -7.11,7.57 -12.5,12.32 -14.73,14.04 -1.24,0.22 -2.34,0.39 -3.41,0.53 -1.36,0.18 -2.53,0.3 -3.77,0.41 -1.57,0.15 -3.36,0.33 -5.73,0.64l-2.17 0.29 -1.88 1.13c-2.62,1.55 -8.28,5.65 -18.08,12.76 -7.45,5.41 -18.99,13.8 -24.75,17.57z"/>
    <path class="fil19" d="M182.8 374.12c-24.79,9.65 -63.18,41.65 -67.84,53.94 5.51,14.52 12.99,33.73 17.26,45.89 0.53,0.17 1.04,0.35 1.51,0.5 5.76,-3.77 17.3,-12.16 24.75,-17.57 9.79,-7.11 15.46,-11.21 18.08,-12.76l1.88 -1.13 2.17 -0.29c2.37,-0.31 4.16,-0.49 5.73,-0.64 1.24,-0.12 2.4,-0.23 3.77,-0.41 1.07,-0.14 2.18,-0.32 3.41,-0.53 2.23,-1.73 7.61,-6.47 14.73,-14.04 -5.02,-15.76 -14.8,-37.18 -25.45,-52.95z"/>
    <path class="fil1" d="M141.77 539.16c3.75,-42.9 81.06,-99.57 142.09,-24.85 -20.35,59.91 -115.76,50.98 -142.09,24.85z"/>
    <path class="fil3" d="M212.04 557.71c-25.7,3.4 -60.19,3.02 -70.9,-13.09 3.88,-20.16 39.24,-51.71 67.95,-55.51 22.25,-2.94 43.74,6.47 62.48,27.26 -11.73,26.11 -37.93,38.48 -59.53,41.34z"/>
    <path class="fil1" d="M343.19 493.75c1.72,-31.24 -14.08,-42.57 -28.26,-50 -53.55,-16.93 -91.83,33.5 -82.88,70.68 28.18,7.13 75.55,17.2 94.78,21.32 5.26,8.01 15.56,23.34 25.86,35.7 -7.55,-16.94 -16.71,-45.08 -16.71,-45.08 0,0 5.83,-18.88 7.21,-32.61z"/>
    <path class="fil3" d="M335.98 526.37c-44.96,-4.2 -78.06,-4.58 -106.98,-9.52 16.18,-71.02 76.31,-78.14 104.17,-52.13 11.74,11.53 16.09,44.94 2.81,61.65z"/>
    <path class="fil20" d="M229 516.85l0.11 0.03c19.87,-35.5 68.81,-65.55 104.06,-52.15 -29.99,-29.92 -87.99,-18.89 -104.17,52.13z"/>
    <path class="fil1" d="M150.84 468.63c0,-11 -2.09,-26.87 -6.51,-42.45 9.71,14.87 11,28.06 12.16,37.66 -0.57,0.75 -3.2,2.89 -5.65,4.79z"/>
    <path class="fil1" d="M173.6 451.6c2.44,-12.1 -3.01,-28.77 -7.62,-42.41 10.26,10.53 14.5,25.68 16.21,38.58 -1.05,0.58 -6.9,2.93 -8.58,3.82z"/>
    <path class="fil21" d="M152.02 542.05c4.91,-30.7 53.18,-63.56 80.24,-51.54 -0.58,5 -2.48,21.97 2.74,35.98 -23.01,21.1 -64.86,25.29 -82.97,15.56z"/>
    <g>
     <path class="fil22" d="M393.84 499.36l-0.01 0.01c-0.56,0.55 -1.11,1.11 -1.65,1.68l-6.46 6.9c-9.93,10.61 -15.41,24.65 -15.41,40.83l0 0.86c0,36.5 26.73,50.29 64.66,63.23 23.57,8.33 29.6,13.22 29.6,21.27l0 0.29c0,1.76 -0.3,3.42 -0.9,4.93 -3.4,1.8 -7.95,2.82 -13.62,2.82 -19.54,0 -38.22,-9.2 -54.6,-22.7l-6.46 6.9 -27.59 37.65c23.57,20.41 52.02,29.6 81.91,29.6 24.47,0 44.77,-7.78 57.75,-21.64l6.46 -6.9c9.89,-10.57 15.54,-24.68 15.54,-41.58l0 -0.58c0,-34.2 -23.85,-49.72 -62.08,-62.08 -25.58,-9.48 -31.9,-14.08 -31.9,-22.99l0 -0.29c0,-1.39 0.23,-2.73 0.68,-3.98 2.92,-1.48 6.7,-2.34 11.25,-2.34 16.38,0 33.05,7.76 46.84,18.39l6.46 -6.9 26.15 -38.51c-20.98,-16.96 -44.83,-24.43 -71.85,-24.43 -23.42,0 -42.27,7.26 -54.77,19.55z"/>
    </g>
    <g>
     <g style="clip-path:url(#id0)">
      <image x="341.02" y="460.62" width="201.78" height="253.52" xlink:href="safari-pinned-tab_Images\safari-pinned-tab_ImgID1.png"/>
     </g>
    </g>
    <path class="fil23" d="M449.77 686.73c43.11,0 73.29,-24.14 73.29,-63.23l0 -0.58c0,-34.2 -23.85,-49.72 -62.08,-62.08 -25.58,-9.48 -31.9,-14.08 -31.9,-22.99l0 -0.29c0,-7.47 6.61,-13.22 18.39,-13.22 16.38,0 33.05,7.76 46.84,18.39l26.15 -38.51c-20.98,-16.96 -44.83,-24.43 -71.85,-24.43 -43.97,0 -71.85,25.58 -71.85,62.08l0 0.86c0,36.5 26.73,50.29 64.66,63.23 23.57,8.33 29.6,13.22 29.6,21.27l0 0.29c0,8.62 -7.18,14.66 -20.98,14.66 -19.54,0 -38.22,-9.2 -54.6,-22.7l-27.59 37.65c23.57,20.41 52.02,29.6 81.91,29.6z"/>
    <g>
     <path class="fil24" d="M646.02 634.58c0.04,-0.53 0.06,-1.06 0.06,-1.61l0 -0.29c0,-11.78 -8.91,-19.54 -25.87,-19.54l-24.71 0 0 27.61 30.46 0c8.84,0 15.68,-2.17 20.06,-6.17zm-6.31 -76.69c0.03,-0.45 0.04,-0.9 0.04,-1.36l0 -0.29c0,-12.07 -8.62,-18.68 -24.14,-18.68l-20.12 0 0 25.89 24.72 0c8.59,0 15.23,-1.87 19.5,-5.56zm34.88 24.81c17.17,8.29 28.67,21.28 28.67,44.26l0 1.15c0,8.42 -1.61,16.05 -4.73,22.78l-5.46 11.76c-9.67,20.82 -33.86,32.97 -69.7,32.97l-83.63 0 0 -201.17 5.46 -11.76 83.34 0c24.14,0 42.82,5.75 54.6,17.82 8.33,8.05 13.22,18.97 13.22,33.34l0 1.15c0,7.87 -1.55,14.67 -4.26,20.5l-5.46 11.76c-2.87,6.18 -7.05,11.28 -12.06,15.44z"/>
    </g>
    <g>
     <g style="clip-path:url(#id1)">
      <image x="517.94" y="463.06" width="205.52" height="248.63" xlink:href="safari-pinned-tab_Images\safari-pinned-tab_ImgID2.png"/>
     </g>
    </g>
    <path class="fil25" d="M545.21 683.86l83.63 0c47.42,0 74.43,-21.27 74.43,-55.75l0 -1.15c0,-26.44 -15.23,-39.66 -36.78,-47.71 16.67,-7.47 29.89,-21.27 29.89,-44.26l0 -1.15c0,-14.37 -4.88,-25.29 -13.22,-33.34 -11.78,-12.07 -30.46,-17.82 -54.6,-17.82l-83.34 0 0 201.17zm100.01 -139.1c0,12.36 -9.2,18.68 -25,18.68l-24.72 0 0 -37.65 25.58 0c15.52,0 24.14,6.61 24.14,18.68l0 0.29zm6.32 76.16l0 0.29c0,12.36 -9.48,19.54 -25.58,19.54l-30.46 0 0 -39.37 30.18 0c16.96,0 25.87,7.76 25.87,19.54z"/>
   </g>
  </g>
 </g>
</svg>
